<svg width="10" height="19" viewBox="0 0 10 19" fill="none" xmlns="http://www.w3.org/2000/svg">
<path d="M8.01843 18.624L0.253456 10.2018C0.16129 10.1016 0.0961595 9.99296 0.0580643 9.87599C0.0193546 9.75901 0 9.63369 0 9.5C0 9.36631 0.0193546 9.24098 0.0580643 9.12401C0.0961595 9.00704 0.16129 8.89842 0.253456 8.79815L8.01843 0.350923C8.23349 0.116974 8.50231 0 8.82489 0C9.14747 0 9.42396 0.12533 9.65438 0.375989C9.88479 0.626649 10 0.919085 10 1.2533C10 1.58751 9.88479 1.87995 9.65438 2.13061L2.88018 9.5L9.65438 16.8694C9.86943 17.1033 9.97696 17.3914 9.97696 17.7337C9.97696 18.0766 9.86175 18.3734 9.63134 18.624C9.40092 18.8747 9.1321 19 8.82489 19C8.51767 19 8.24885 18.8747 8.01843 18.624Z" fill="white"/>
</svg>
