<svg width="33" height="33" viewBox="0 0 33 33" fill="none" xmlns="http://www.w3.org/2000/svg">
<rect x="2.0625" y="2.0625" width="28.875" height="28.875" fill="white"/>
<path d="M19.5938 26.0779L21.7197 24.6712C21.8863 25.1946 22.9413 26.4378 24.274 26.4378C25.6067 26.4378 26.2255 25.7099 26.2255 25.2274C26.2255 23.9123 24.8646 23.4487 24.211 23.226C24.1045 23.1897 24.0167 23.1598 23.9567 23.1336C23.926 23.1202 23.8794 23.1024 23.8197 23.0796C23.0927 22.8019 20.4108 21.7772 20.4108 18.8071C20.4108 15.5356 23.568 15.1594 24.282 15.1594C24.7491 15.1594 26.995 15.2167 28.1135 17.3186L26.051 18.758C25.5988 17.842 24.8475 17.5394 24.3851 17.5394C23.2428 17.5394 23.0048 18.3769 23.0048 18.758C23.0048 19.8277 24.2459 20.3071 25.2938 20.7119C25.568 20.8178 25.8289 20.9186 26.051 21.0235C27.1933 21.5633 28.875 22.4466 28.875 25.2274C28.875 26.6202 27.7068 28.875 24.7659 28.875C20.8154 28.875 19.7683 26.5032 19.5938 26.0779Z" fill="#3E3E3E"/>
<path d="M9.28125 26.3573L11.4971 24.9513C11.6707 25.4744 12.3454 26.439 13.3243 26.439C14.3032 26.439 14.8043 25.4336 14.8043 24.9513V15.4688H17.5294V24.9513C17.5735 26.2592 16.8481 28.8751 13.6467 28.8751C10.7033 28.8751 9.47968 27.1257 9.28125 26.3573Z" fill="#3E3E3E"/>
</svg>
