<svg width="31" height="27" viewBox="0 0 31 27" fill="none" xmlns="http://www.w3.org/2000/svg">
<path d="M18.2626 13.4752C18.2626 11.9959 17.0258 10.7966 15.5 10.7966C13.9743 10.7966 12.7374 11.9959 12.7374 13.4752C12.7374 14.9545 13.9743 16.1538 15.5 16.1538C17.0258 16.1538 18.2626 14.9545 18.2626 13.4752Z" fill="#53C1DE"/>
<path fill-rule="evenodd" clip-rule="evenodd" d="M24.4723 8.50226C25.0557 6.20368 25.789 1.94121 23.2038 0.496103C20.6308 -0.942711 17.2825 1.81431 15.5144 3.46922C13.7514 1.83081 10.309 -0.914435 7.72606 0.535265C5.15399 1.9789 5.94716 6.1707 6.54349 8.48367C4.1442 9.14442 0.03125 10.5675 0.03125 13.4752C0.03125 16.3745 4.13992 17.9228 6.52501 18.5829C5.92647 20.9087 5.17302 25.0406 7.74837 26.481C10.3409 27.9305 13.7727 25.2506 15.5571 23.5776C17.3365 25.2422 20.6527 27.9396 23.2263 26.4952C25.808 25.0462 25.1356 20.8408 24.5392 18.5144C26.8512 17.8529 30.9688 16.3383 30.9688 13.4752C30.9688 10.5955 26.8338 9.16078 24.4723 8.50226ZM24.1792 17.2816C23.7877 16.0798 23.2592 14.8017 22.6126 13.4815C23.2297 12.1925 23.7377 10.931 24.1183 9.73685C25.8495 10.2235 29.6472 11.3357 29.6472 13.4752C29.6472 15.6346 26.0029 16.7574 24.1792 17.2816ZM22.564 25.3862C20.6439 26.4638 17.7916 23.8843 16.4775 22.6584C17.3492 21.7339 18.2204 20.6592 19.0707 19.4657C20.5664 19.3371 21.9794 19.1267 23.2608 18.8395C23.6805 20.4851 24.4927 24.3037 22.564 25.3862ZM8.40873 25.3708C6.48835 24.2972 7.3661 20.6101 7.80643 18.8969C9.07361 19.1686 10.4763 19.3642 11.9756 19.4821C12.8315 20.6499 13.7279 21.7233 14.6313 22.6633C13.5151 23.7102 10.3381 26.4494 8.40873 25.3708ZM1.35279 13.4752C1.35279 11.3075 5.12776 10.2034 6.89839 9.718C7.28559 10.9389 7.79342 12.2155 8.40627 13.5063C7.78548 14.8165 7.27039 16.1133 6.87963 17.3486C5.19131 16.8801 1.35279 15.6441 1.35279 13.4752ZM8.38819 1.64428C10.3164 0.562106 13.3083 3.19763 14.5883 4.38388C13.6895 5.31965 12.8013 6.38499 11.9529 7.54604C10.4978 7.6768 9.10496 7.88682 7.8245 8.16812C7.3441 6.30261 6.46204 2.72528 8.38819 1.64428ZM20.0161 8.93888C21.0033 9.05968 21.949 9.22031 22.837 9.41692C22.5705 10.2454 22.2382 11.1118 21.8468 11.9999C21.2795 10.9562 20.6706 9.93353 20.0161 8.93888ZM15.5148 5.29961C16.1243 5.93987 16.7349 6.65488 17.3354 7.43055C16.1172 7.37473 14.897 7.37447 13.6789 7.42975C14.2799 6.66125 14.8956 5.94731 15.5148 5.29961ZM9.16452 11.9989C8.77964 11.1139 8.45035 10.2437 8.18145 9.40338C9.06416 9.21181 10.0055 9.0553 10.9862 8.93649C10.3299 9.92895 9.72201 10.9512 9.16452 11.9989ZM11.0144 18.1053C10.0012 17.9956 9.04567 17.8471 8.16324 17.6608C8.43639 16.8056 8.77293 15.9167 9.16603 15.0127C9.73122 16.0712 10.3484 17.1034 11.0144 18.1053ZM15.5513 21.7412C14.9249 21.0858 14.3002 20.361 13.6899 19.5814C14.9151 19.628 16.1426 19.6281 17.3676 19.5751C16.7651 20.369 16.1568 21.0949 15.5513 21.7412ZM21.8594 14.9666C22.2729 15.8805 22.6215 16.7646 22.8984 17.6053C22.0013 17.8038 21.0329 17.9636 20.0124 18.0823C20.6717 17.0689 21.2903 16.0303 21.8594 14.9666ZM18.3331 18.2376C16.4592 18.3675 14.5735 18.3661 12.6989 18.2483C11.6337 16.7396 10.6856 15.1531 9.86705 13.5059C10.6815 11.8623 11.6229 10.2788 12.683 8.77254C14.559 8.63504 16.4465 8.63471 18.3224 8.77334C19.3734 10.2795 20.3134 11.8589 21.1468 13.4878C20.3232 15.1307 19.377 16.7173 18.3331 18.2376ZM22.5438 1.60618C24.4725 2.6848 23.614 6.51561 23.1926 8.18139C21.9091 7.89425 20.5153 7.68052 19.056 7.54777C18.2059 6.3741 17.3251 5.30691 16.4409 4.38322C17.7373 3.17142 20.6337 0.538103 22.5438 1.60618Z" fill="#53C1DE"/>
</svg>
