<svg width="37" height="33" viewBox="0 0 37 33" fill="none" xmlns="http://www.w3.org/2000/svg">
<path d="M1.78095 33C1.45049 33 1.15007 32.9163 0.879691 32.7488C0.609315 32.5802 0.399022 32.3583 0.248813 32.0833C0.0986035 31.8083 0.0162889 31.5101 0.00186886 31.1887C-0.0137529 30.8684 0.0685617 30.5556 0.248813 30.25L16.922 0.916667C17.1023 0.611111 17.3348 0.381944 17.6196 0.229167C17.9056 0.0763889 18.1988 0 18.4992 0C18.7997 0 19.0929 0.0763889 19.3789 0.229167C19.6637 0.381944 19.8962 0.611111 20.0764 0.916667L36.7496 30.25C36.9299 30.5556 37.0128 30.8684 36.9984 31.1887C36.9828 31.5101 36.8999 31.8083 36.7496 32.0833C36.5994 32.3583 36.3891 32.5802 36.1188 32.7488C35.8484 32.9163 35.548 33 35.2175 33H1.78095ZM4.89028 29.3333H32.1082L18.4992 5.5L4.89028 29.3333ZM18.4992 27.5C19.0099 27.5 19.4383 27.324 19.7844 26.972C20.1293 26.6212 20.3017 26.1861 20.3017 25.6667C20.3017 25.1472 20.1293 24.7121 19.7844 24.3613C19.4383 24.0093 19.0099 23.8333 18.4992 23.8333C17.9885 23.8333 17.5607 24.0093 17.2158 24.3613C16.8698 24.7121 16.6967 25.1472 16.6967 25.6667C16.6967 26.1861 16.8698 26.6212 17.2158 26.972C17.5607 27.324 17.9885 27.5 18.4992 27.5ZM18.4992 22C19.0099 22 19.4383 21.824 19.7844 21.472C20.1293 21.1212 20.3017 20.6861 20.3017 20.1667V14.6667C20.3017 14.1472 20.1293 13.7115 19.7844 13.3595C19.4383 13.0087 19.0099 12.8333 18.4992 12.8333C17.9885 12.8333 17.5607 13.0087 17.2158 13.3595C16.8698 13.7115 16.6967 14.1472 16.6967 14.6667V20.1667C16.6967 20.6861 16.8698 21.1212 17.2158 21.472C17.5607 21.824 17.9885 22 18.4992 22Z" fill="#FFCA28"/>
</svg>
